PathFileType	4	(X/Y/Z)	C:\Users\Basilio\Documents\Thesis Gigler\squatting_fais\c3dfiles\076\SLS_back_pre1\markers_experimental.trc
DataRate	CameraRate	NumFrames	NumMarkers	Units	OrigDataRate	OrigDataStartFrame	OrigNumFrames
200.000000	200.000000	4	61	mm	200.000000	866	2311
Frame#	Time	FHD			LBHD			RBHD			C7			T10			CLAV			LSHO			LUUPA			LMUPA			LDUPA			LLEP			LMEP			LRAD			LUL			LRFIN			RSHO			RUPA1			RMUPA			RDUPA			RLEP			RMEP			RRAD			RUL			RUFIN			LASI			RASI			USACR			LSACR			RSACR			LTHI1			LTHI2			LTHI3			LTHI4			LLFC			LMFC			LTIB1			LTIB2			LTIB3			LTIB4			LLMAL			LMMAL			LHEE			LMT1			LMT2			LMT5			RTHI			RTHI2			RTHI3			RTHI4			RLFC			RMFC			RTIB1			RTIB2			RTIB3			RTIB4			RLMAL			RMMAL			RHEE			RMT1			RMT2			RMT5			
		X1	Y1	Z1	X2	Y2	Z2	X3	Y3	Z3	X4	Y4	Z4	X5	Y5	Z5	X6	Y6	Z6	X7	Y7	Z7	X8	Y8	Z8	X9	Y9	Z9	X10	Y10	Z10	X11	Y11	Z11	X12	Y12	Z12	X13	Y13	Z13	X14	Y14	Z14	X15	Y15	Z15	X16	Y16	Z16	X17	Y17	Z17	X18	Y18	Z18	X19	Y19	Z19	X20	Y20	Z20	X21	Y21	Z21	X22	Y22	Z22	X23	Y23	Z23	X24	Y24	Z24	X25	Y25	Z25	X26	Y26	Z26	X27	Y27	Z27	X28	Y28	Z28	X29	Y29	Z29	X30	Y30	Z30	X31	Y31	Z31	X32	Y32	Z32	X33	Y33	Z33	X34	Y34	Z34	X35	Y35	Z35	X36	Y36	Z36	X37	Y37	Z37	X38	Y38	Z38	X39	Y39	Z39	X40	Y40	Z40	X41	Y41	Z41	X42	Y42	Z42	X43	Y43	Z43	X44	Y44	Z44	X45	Y45	Z45	X46	Y46	Z46	X47	Y47	Z47	X48	Y48	Z48	X49	Y49	Z49	X50	Y50	Z50	X51	Y51	Z51	X52	Y52	Z52	X53	Y53	Z53	X54	Y54	Z54	X55	Y55	Z55	X56	Y56	Z56	X57	Y57	Z57	X58	Y58	Z58	X59	Y59	Z59	X60	Y60	Z60	X61	Y61	Z61	

867	4.33	-222.2319793701172	1640.6875	-977.5916137695315	-369.1989440917969	1562.913330078125	-1055.468017578125	-332.9213562011719	1564.388305664063	-907.7666015625002	-397.4322204589845	1445.073852539063	-985.548767089844	-421.2074279785157	1124.501342773438	-989.9399414062502	-262.4808654785157	1369.18115234375	-993.5327758789065	-344.8868713378907	1399.308837890625	-1161.251953125	-367.9179992675782	1250.633666992188	-1292.399780273438	-348.4595031738282	1206.33349609375	-1278.264892578125	-377.7775268554688	1193.58642578125	-1330.59521484375	-391.1365966796876	1144.0986328125	-1357.766845703125	-467.7017517089845	1129.461303710938	-1314.0869140625	-356.6998291015626	995.2528076171877	-1171.507568359375	-315.9969787597657	960.8189086914065	-1208.438720703125	-307.4014282226563	1018.031372070313	-1157.303344726563	-330.8159179687501	1391.959716796875	-825.5677490234377	-378.1952514648438	1261.604736328125	-685.6347045898439	-344.3389282226563	1224.537353515625	-682.5608520507814	-385.9230041503907	1205.353637695313	-642.6292114257814	-376.5849304199219	1136.45751953125	-617.6730346679689	-448.361297607422	1116.236206054688	-669.9087524414064	-335.5325012207032	996.7880859375002	-809.5211181640627	-285.6156005859376	1023.09423828125	-821.5615844726565	-286.9689941406251	969.2156982421877	-772.7460937500002	-255.8179779052735	946.908630371094	-1100.358032226563	-247.7903137207032	938.7297363281252	-887.982360839844	-420.784149169922	1017.6181640625	-985.9730224609377	-428.4516601562501	988.6949462890627	-1014.230834960938	-424.2424621582032	986.8896484375002	-957.8183593750002	-341.8793029785157	792.3969726562502	-1157.18017578125	-319.8549804687501	711.5925292968751	-1145.680908203125	-271.2107543945313	711.7573242187501	-1136.6572265625	-353.7665710449219	663.3594360351564	-1130.747314453125	-368.0661010742188	503.286102294922	-1095.787475585938	-332.5674438476563	503.0936279296876	-981.4830322265627	-331.6382141113282	364.4150390625001	-1019.890502929688	-354.2162475585938	307.2777709960938	-1083.54150390625	-324.6900024414063	312.9034118652344	-1047.549438476563	-334.1467285156251	236.8817596435547	-1011.255187988281	-386.9567260742189	107.7919464111328	-1054.5185546875	-357.5697937011719	123.1665115356446	-977.1346435546877	-443.4680480957032	97.13889312744143	-1007.126342773438	-241.3453979492188	53.33711242675783	-993.263122558594	-236.1712188720704	50.10226440429689	-1032.186401367188	-260.2416076660157	43.75468063354493	-1081.893432617188	-330.3670959472657	695.3601684570314	-799.6988525390627	-287.4038085937501	645.6376342773439	-783.0889892578127	-253.0607604980469	651.5680541992189	-785.0996704101565	-300.9881896972657	564.4103393554689	-795.067321777344	-294.7235412597657	507.5587158203126	-792.6232910156252	-244.4810333251954	493.024627685547	-897.5504150390627	-269.5544433593751	367.7533569335938	-796.2512817382815	-356.9289245605469	304.2632446289063	-780.1602172851565	-311.3407897949219	292.0582885742188	-783.7561645507815	-302.9998168945313	242.6051330566407	-813.9600830078127	-392.0843200683595	121.7733383178711	-786.3430175781252	-361.9425964355469	127.6512832641602	-866.7244262695315	-449.4329833984376	109.3735961914063	-829.9873046875002	-253.3400421142579	52.11891174316408	-840.9645996093752	-249.1188964843751	54.50471115112306	-795.1424560546877	-281.4324035644532	42.42852401733399	-742.9198608398439	
868	4.335	-222.2293853759766	1640.620361328125	-977.5379028320315	-369.0440063476563	1562.833374023438	-1055.5751953125	-333.1268310546876	1564.447143554688	-907.8740844726565	-397.4911499023439	1445.08544921875	-985.5449829101565	-421.2803344726564	1124.492431640625	-989.895935058594	-262.5065307617188	1369.194213867188	-993.5452270507815	-344.8281555175782	1399.302612304688	-1161.2001953125	-367.8854370117188	1250.600219726563	-1292.36279296875	-349.5611572265626	1206.4921875	-1278.461303710938	-377.8009338378907	1193.61572265625	-1330.611206054688	-391.0845031738282	1144.100952148438	-1357.756469726563	-467.7285156250001	1129.34375	-1314.09912109375	-356.6196899414063	995.2382812500002	-1171.495727539063	-316.0663757324219	960.8455810546877	-1208.430541992188	-307.5099182128907	1018.009582519531	-1157.317016601563	-330.8840332031251	1391.972045898438	-825.5821533203127	-378.2677001953126	1261.594970703125	-685.6261596679689	-344.4736328125001	1224.50341796875	-682.5217285156251	-385.9979553222657	1205.33740234375	-642.5970458984376	-376.6813354492188	1136.483520507813	-617.6846313476564	-448.4657592773439	1116.276245117188	-669.6262207031251	-335.5456848144532	996.7680664062502	-809.5161743164065	-285.6139831542969	1023.093444824219	-821.555358886719	-287.0341796875001	969.2086181640627	-772.7061157226565	-255.8394622802735	946.9089355468752	-1100.357177734375	-247.7893218994141	938.6882324218752	-887.9068603515627	-420.7857666015626	1017.586486816406	-985.9743652343752	-428.4863891601564	988.675231933594	-1014.176818847656	-424.3080139160157	986.8779907226565	-957.7933349609377	-341.7691955566407	792.3257446289065	-1157.203247070313	-320.4407958984376	711.7871093750001	-1145.850952148438	-271.1656494140626	711.7280273437501	-1136.592407226563	-353.7666931152344	663.4209594726564	-1130.701538085938	-368.0930480957032	503.2756347656251	-1095.78173828125	-332.4420471191407	503.2222900390626	-981.5296020507815	-331.6066894531251	364.4116516113282	-1019.843933105469	-354.1513977050782	307.3351440429688	-1083.5595703125	-324.6698303222657	312.9065856933594	-1047.512573242188	-334.3707885742188	237.016586303711	-1011.369018554688	-386.9967346191407	107.7652893066407	-1054.521850585938	-357.5820007324219	123.1678771972657	-977.1255493164065	-443.4671936035157	97.14105987548831	-1007.094787597656	-241.3623809814454	53.32121658325197	-993.3167724609377	-236.1650848388672	50.09713363647462	-1032.187744140625	-260.9601745605469	44.11229324340821	-1082.157958984375	-330.3267211914063	695.4147949218751	-799.6937255859377	-287.4178771972657	645.6155395507814	-783.0510253906252	-253.1143035888672	651.5252075195314	-785.0930786132815	-301.0328369140626	564.3876953125001	-795.0620117187502	-294.7215881347657	507.5259704589845	-792.6135253906252	-244.5752716064454	493.0558471679689	-897.571960449219	-269.5562744140626	367.7277221679688	-796.2211914062502	-356.9423828125001	304.2193603515626	-780.158142089844	-311.3570556640626	292.0667419433594	-783.7375488281252	-302.9952392578126	242.6254425048829	-813.9421997070315	-392.0790405273439	121.7547454833985	-786.3397216796877	-361.8757324218751	127.6409454345703	-866.7116699218752	-449.4381103515626	109.3460769653321	-829.9503173828127	-253.4364929199219	52.16711044311525	-841.0052490234377	-249.0764312744141	54.51646804809572	-795.1470336914065	-281.4407043457032	42.39977264404298	-742.9270019531251	
869	4.34	-222.3730773925782	1640.624755859375	-977.4365234375002	-369.2505187988282	1562.231079101563	-1055.33837890625	-333.3129577636719	1564.387573242188	-907.7783203125002	-397.5147705078126	1445.054565429688	-985.535583496094	-421.2741088867189	1124.455078125	-989.9267578125002	-262.5875549316407	1369.181884765625	-993.5102539062502	-344.7766723632813	1399.2392578125	-1161.184814453125	-367.8003845214844	1250.569580078125	-1292.332275390625	-348.5018615722657	1206.24609375	-1278.22314453125	-377.8243713378907	1193.579223632813	-1330.538818359375	-391.0663146972657	1144.044189453125	-1357.746459960938	-467.7369079589845	1129.369384765625	-1314.165771484375	-356.6640930175782	995.1723632812502	-1171.51611328125	-316.0511474609376	960.813415527344	-1208.395141601563	-307.3882141113282	1017.986083984375	-1157.317626953125	-331.0003967285157	1391.93408203125	-825.5753173828127	-378.3503723144532	1261.569091796875	-685.6336059570314	-344.5266113281251	1224.490966796875	-682.5166015625001	-386.0875854492189	1205.341918945313	-642.6112060546876	-376.7858886718751	1136.332397460938	-617.6345214843751	-448.4604492187501	1116.316162109375	-669.7410278320314	-335.6684875488282	996.7204589843752	-809.5522460937502	-285.6346130371094	1023.083984375	-821.4793090820315	-287.0868530273438	969.2075195312502	-772.6898193359377	-255.9012298583985	946.8709716796877	-1100.382202148438	-247.8098297119141	938.7327880859377	-887.9108886718752	-420.790740966797	1017.6044921875	-985.9516601562502	-428.4772338867189	988.683532714844	-1014.158935546875	-424.2682495117189	986.9084472656252	-957.7825927734377	-341.8220825195313	792.3208618164065	-1157.134155273438	-320.4942321777344	711.7563476562501	-1145.858154296875	-271.3030700683594	711.7520751953126	-1136.588623046875	-353.8641662597657	663.4038696289064	-1130.763305664063	-368.1254577636719	503.2509765625001	-1095.734008789063	-332.4282836914063	503.1856079101564	-981.5149536132815	-331.5941467285157	364.3637695312501	-1019.858032226563	-354.1907653808594	307.2631225585938	-1083.551025390625	-324.6546325683594	312.9087219238282	-1047.56884765625	-334.1447448730469	236.8845977783204	-1011.194519042969	-386.9754943847657	107.7866363525391	-1054.53271484375	-357.5516052246094	123.2011489868164	-977.0982055664065	-443.4714965820314	97.15406036376956	-1007.102172851563	-241.3405303955079	53.32615661621095	-993.2728271484377	-236.2315216064454	50.11456298828126	-1032.184326171875	-260.2449645996094	43.76305770874024	-1081.937133789063	-330.3546142578126	695.3567504882814	-799.6961669921877	-287.4241943359376	645.6222534179689	-783.0332641601565	-253.0896148681641	651.5286254882814	-785.0605468750002	-301.0207824707032	564.3908081054689	-795.035827636719	-294.7567138671876	507.5119934082032	-792.6082153320315	-244.5193176269532	493.065399169922	-897.551940917969	-269.5295410156251	367.7183227539063	-796.178161621094	-356.9263610839844	304.2370910644532	-780.1552734375002	-311.3473815917969	292.0845642089844	-783.7322998046877	-303.0000610351563	242.5994110107422	-813.9470214843752	-392.116424560547	121.7785110473633	-786.3528442382815	-361.9371643066407	127.6733703613282	-866.7530517578127	-449.4318237304689	109.3511123657227	-829.985534667969	-253.3951416015626	52.13264846801759	-840.9912719726565	-249.1410675048829	54.46422195434572	-795.164245605469	-281.4436035156251	42.41344451904298	-742.9161376953126	
870	4.345	-222.4554748535157	1640.659545898438	-977.351013183594	-368.9018249511719	1562.829711914063	-1055.612670898438	-333.5205993652344	1564.457763671875	-907.9358520507815	-397.5328063964845	1445.040649414063	-985.6129150390627	-421.3049316406251	1124.471557617188	-989.8978271484377	-262.5857543945313	1369.192138671875	-993.5026855468752	-344.8823852539063	1399.513671875	-1161.3837890625	-367.8686523437501	1250.566650390625	-1292.357299804688	-349.4994506835938	1206.460327148438	-1278.439819335938	-377.7617797851563	1193.580322265625	-1330.504150390625	-391.0975952148439	1144.033203125	-1357.719482421875	-467.7520446777345	1129.369750976563	-1314.094116210938	-356.7433166503907	995.1737060546877	-1171.444458007813	-316.0606079101563	960.8020629882815	-1208.38525390625	-307.3111572265626	1017.977111816406	-1157.290893554688	-331.0849914550782	1391.912963867188	-825.5548095703127	-378.4695434570313	1261.555053710938	-685.6029663085939	-344.6669616699219	1224.489868164063	-682.5235595703126	-386.2006835937501	1205.327026367188	-642.6172485351564	-376.8823547363282	1136.418823242188	-617.7257080078126	-448.4662475585939	1116.32421875	-669.7302856445314	-335.6845703125001	996.7543945312502	-809.5093383789065	-285.6898193359376	1023.063781738281	-821.4854736328127	-287.1201782226563	969.194519042969	-772.6707763671877	-256.1004638671876	946.9313964843752	-1100.353271484375	-247.8445892333985	938.6655273437502	-887.8821411132815	-420.8749084472657	1017.606384277344	-985.9024658203127	-428.512176513672	988.643005371094	-1014.125915527344	-424.2792358398439	986.8843994140627	-957.7789306640627	-341.9276428222657	792.2794189453127	-1157.16357421875	-320.4793395996094	711.7731933593751	-1145.829467773438	-271.3278808593751	711.7910156250001	-1136.596557617188	-353.8635864257813	663.4645385742189	-1130.656127929688	-368.0849304199219	503.2427673339845	-1095.76220703125	-332.4096984863282	503.2058410644532	-981.5406494140627	-331.5880432128907	364.3639221191407	-1019.835632324219	-354.1464538574219	307.2895202636719	-1083.54052734375	-324.6767578125001	312.9070129394532	-1047.531005859375	-334.1025390625001	236.9239349365235	-1011.160949707031	-386.8286743164064	107.7493667602539	-1054.470703125	-357.5967407226563	123.160514831543	-977.1068115234377	-443.4865112304689	97.16845703125003	-1007.077087402344	-241.3553924560547	53.32115936279298	-993.3211059570315	-236.1734313964844	50.09796524047853	-1032.2021484375	-260.2543029785157	43.8075294494629	-1081.9033203125	-330.3589172363282	695.3821411132814	-799.677429199219	-287.4520874023438	645.6384887695314	-783.0170898437502	-253.0867309570313	651.5178833007814	-785.0590820312502	-301.0370178222657	564.3884887695314	-795.0195922851565	-294.7589721679688	507.512176513672	-792.5615234375002	-244.4720306396485	492.9983825683595	-897.4625244140627	-269.5276794433594	367.7101135253907	-796.1892700195315	-356.9424133300782	304.2060852050782	-780.1528320312502	-311.3739624023438	292.0893554687501	-783.7053222656252	-303.0513000488282	242.5950775146485	-813.9033203125002	-392.1131591796876	121.7843399047852	-786.352233886719	-361.8164367675782	127.6395721435547	-866.7110595703127	-449.4418334960939	109.3852767944336	-829.986267089844	-253.3514251708985	52.15928649902345	-840.9942626953127	-249.1055450439454	54.525691986084	-795.1530761718752	-281.4450683593751	42.38692855834962	-742.9456787109376	
